<?xml version="1.0" encoding="iso-8859-1"?>
<!-- Generator: Adobe Illustrator 19.0.0, SVG Export Plug-In . SVG Version: 6.00 Build 0)  -->
<svg version="1.1" id="Capa_1" xmlns="http://www.w3.org/2000/svg" xmlns:xlink="http://www.w3.org/1999/xlink" x="0px" y="0px"
	 viewBox="0 0 512.001 512.001" style="enable-background:new 0 0 512.001 512.001;" xml:space="preserve">
<g>
	<rect x="162.134" y="281.601" style="fill:#7F8C8D;" width="51.2" height="119.467"/>
	<path style="fill:#95A5A5;" d="M443.736,256.001l-0.002,86.187c0.102,13.374-3.986,26.444-11.691,37.376l-98.56,21.504H204.8
		v-102.4h-34.133v102.4H87.126c-10.579-0.167-19.022-8.876-18.859-19.456l-0.002-125.611H443.736z"/>
	<path style="fill:#C03A2B;" d="M110.934,85.334h290.133c23.564,0,42.667,19.103,42.667,42.667v34.133H68.267v-34.133
		C68.267,104.436,87.369,85.334,110.934,85.334z"/>
	<path style="fill:#2C2F38;" d="M162.134,51.201h51.2c14.138,0,25.6,11.462,25.6,25.6v8.533h-102.4v-8.533
		C136.534,62.662,147.995,51.201,162.134,51.201z"/>
	<polyline style="fill:#C03A2B;" points="256,281.601 486.4,281.601 486.4,230.401 227.2,230.401 83.2,230.401 25.6,230.401 
		25.6,281.601 102.4,281.601 	"/>
	<g>
		<path style="fill:#BDC3C7;" d="M213.334,375.467h-51.2c-4.713,0-8.533-3.82-8.533-8.533s3.821-8.533,8.533-8.533h51.2
			c4.713,0,8.533,3.82,8.533,8.533S218.046,375.467,213.334,375.467z"/>
		<path style="fill:#BDC3C7;" d="M213.334,341.334h-51.2c-4.713,0-8.533-3.82-8.533-8.533s3.821-8.533,8.533-8.533h51.2
			c4.713,0,8.533,3.82,8.533,8.533S218.046,341.334,213.334,341.334z"/>
		<path style="fill:#BDC3C7;" d="M290.134,315.734H384c9.414,0.028,17.039,7.652,17.067,17.067v34.645l-67.584,33.621h-34.816
			L290.134,315.734z"/>
	</g>
	<path style="fill:#E6E7E8;" d="M273.067,401.067v-68.267c0-9.426,7.641-17.067,17.067-17.067s17.067,7.641,17.067,17.067v68.267
		H273.067z"/>
	<path style="fill:#5E5F62;" d="M110.963,512.001c-12.168-0.031-23.113-7.403-27.716-18.667l-22.855-54.85
		c-1.18-2.815-0.767-6.046,1.084-8.473c1.851-2.427,4.857-3.68,7.884-3.287c3.027,0.393,5.613,2.374,6.782,5.193l22.854,54.85
		c1.914,4.924,6.655,8.167,11.937,8.167c5.283,0,10.023-3.243,11.937-8.167l22.854-54.85c1.169-2.819,3.755-4.8,6.782-5.193
		s6.033,0.86,7.884,3.287c1.851,2.427,2.264,5.658,1.084,8.473l-22.854,54.85C134.03,504.581,123.111,511.951,110.963,512.001z"/>
	<g>
		<rect x="119.467" y="298.667" style="fill:#E6E7E8;" width="51.2" height="102.4"/>
		<path style="fill:#E6E7E8;" d="M221.867,281.601v119.467H204.8V281.601c0-4.713,3.821-8.533,8.533-8.533
			S221.867,276.888,221.867,281.601z"/>
	</g>
	<path style="fill:#BDC3C7;" d="M256,247.467v41.472c-0.152,5.509-4.73,9.859-10.24,9.728H112.64
		c-5.51,0.131-10.088-4.219-10.24-9.728v-41.472H256z"/>
	<g>
		<path style="fill:#95A5A5;" d="M145.067,247.467v25.6c0,4.713-3.82,8.533-8.533,8.533S128,277.78,128,273.067v-25.6H145.067z"/>
		<path style="fill:#95A5A5;" d="M230.4,247.467v25.6c0,4.713-3.821,8.533-8.533,8.533c-4.713,0-8.533-3.82-8.533-8.533v-25.6H230.4
			z"/>
		<path style="fill:#95A5A5;" d="M187.734,247.467v25.6c0,4.713-3.821,8.533-8.533,8.533c-4.713,0-8.533-3.82-8.533-8.533v-25.6
			H187.734z"/>
	</g>
	<rect x="25.6" y="145.067" style="fill:#E64C3C;" width="460.8" height="102.4"/>
	<path style="fill:#E6E7E8;" d="M238.934,187.734v59.733H119.467v-59.733c0.014-4.707,3.826-8.519,8.533-8.533h102.4
		C235.107,179.215,238.92,183.027,238.934,187.734z"/>
	<path style="fill:#95A5A5;" d="M187.734,179.201v25.6c0,4.713-3.821,8.533-8.533,8.533c-4.713,0-8.533-3.821-8.533-8.533v-25.6
		H187.734z"/>
	<path style="fill:#E6E7E8;" d="M281.6,179.201h42.667c4.713,0,8.533,3.82,8.533,8.533v17.067c0,4.713-3.821,8.533-8.533,8.533
		H281.6c-4.713,0-8.533-3.821-8.533-8.533v-17.067C273.067,183.021,276.887,179.201,281.6,179.201z"/>
	<path style="fill:#5E5F62;" d="M323.242,443.734H64c-25.767,0.111-46.762-20.654-46.933-46.421V65.451
		C17.298,29.133,46.882-0.146,83.2,0.001h345.6c36.318-0.146,65.902,29.132,66.133,65.45v331.863
		c-0.096,19.794-12.693,37.366-31.408,43.813c-2.879,1.003-6.074,0.395-8.383-1.597c-2.308-1.992-3.379-5.063-2.808-8.058
		c0.571-2.995,2.696-5.458,5.575-6.461c11.861-4.054,19.866-15.161,19.958-27.696V65.451c-0.221-26.897-22.17-48.54-49.067-48.383
		H83.2c-26.897-0.157-48.846,21.487-49.067,48.383v331.863c0.161,16.345,13.521,29.476,29.867,29.354h259.242
		c4.713,0,8.533,3.82,8.533,8.533S327.955,443.734,323.242,443.734z"/>
	<circle style="fill:#7F8C8D;" cx="392.534" cy="435.201" r="68.267"/>
	<circle style="fill:#95A5A5;" cx="392.534" cy="435.201" r="25.6"/>
</g>
<g>
</g>
<g>
</g>
<g>
</g>
<g>
</g>
<g>
</g>
<g>
</g>
<g>
</g>
<g>
</g>
<g>
</g>
<g>
</g>
<g>
</g>
<g>
</g>
<g>
</g>
<g>
</g>
<g>
</g>
</svg>
